<svg width="16" height="16" viewBox="0 0 16 16" fill="none" xmlns="http://www.w3.org/2000/svg">
<g clip-path="url(#clip0)">
<path d="M2 13.4166C2 14.1067 2.5599 14.6666 3.25 14.6666H12.4167C13.1068 14.6666 13.6667 14.1067 13.6667 13.4166V6.33325H2V13.4166ZM10.3333 8.31242C10.3333 8.14054 10.474 7.99992 10.6458 7.99992H11.6875C11.8594 7.99992 12 8.14054 12 8.31242V9.35408C12 9.52596 11.8594 9.66658 11.6875 9.66658H10.6458C10.474 9.66658 10.3333 9.52596 10.3333 9.35408V8.31242ZM10.3333 11.6458C10.3333 11.4739 10.474 11.3333 10.6458 11.3333H11.6875C11.8594 11.3333 12 11.4739 12 11.6458V12.6874C12 12.8593 11.8594 12.9999 11.6875 12.9999H10.6458C10.474 12.9999 10.3333 12.8593 10.3333 12.6874V11.6458ZM7 8.31242C7 8.14054 7.14063 7.99992 7.3125 7.99992H8.35417C8.52604 7.99992 8.66667 8.14054 8.66667 8.31242V9.35408C8.66667 9.52596 8.52604 9.66658 8.35417 9.66658H7.3125C7.14063 9.66658 7 9.52596 7 9.35408V8.31242ZM7 11.6458C7 11.4739 7.14063 11.3333 7.3125 11.3333H8.35417C8.52604 11.3333 8.66667 11.4739 8.66667 11.6458V12.6874C8.66667 12.8593 8.52604 12.9999 8.35417 12.9999H7.3125C7.14063 12.9999 7 12.8593 7 12.6874V11.6458ZM3.66667 8.31242C3.66667 8.14054 3.80729 7.99992 3.97917 7.99992H5.02083C5.19271 7.99992 5.33333 8.14054 5.33333 8.31242V9.35408C5.33333 9.52596 5.19271 9.66658 5.02083 9.66658H3.97917C3.80729 9.66658 3.66667 9.52596 3.66667 9.35408V8.31242ZM3.66667 11.6458C3.66667 11.4739 3.80729 11.3333 3.97917 11.3333H5.02083C5.19271 11.3333 5.33333 11.4739 5.33333 11.6458V12.6874C5.33333 12.8593 5.19271 12.9999 5.02083 12.9999H3.97917C3.80729 12.9999 3.66667 12.8593 3.66667 12.6874V11.6458ZM12.4167 2.99992H11.1667V1.74992C11.1667 1.52075 10.9792 1.33325 10.75 1.33325H9.91667C9.6875 1.33325 9.5 1.52075 9.5 1.74992V2.99992H6.16667V1.74992C6.16667 1.52075 5.97917 1.33325 5.75 1.33325H4.91667C4.6875 1.33325 4.5 1.52075 4.5 1.74992V2.99992H3.25C2.5599 2.99992 2 3.55981 2 4.24992V5.49992H13.6667V4.24992C13.6667 3.55981 13.1068 2.99992 12.4167 2.99992Z" fill="black"/>
</g>
<defs>
<clipPath id="clip0">
<rect x="2" y="1.33325" width="11.6667" height="13.3333" rx="5.83333" fill="white"/>
</clipPath>
</defs>
</svg>
