<svg width="24" height="24" viewBox="0 0 24 24" fill="none" xmlns="http://www.w3.org/2000/svg">
<path d="M16 21.4375C15.5625 18.9271 14.8333 16.3333 13.8125 13.6562H13.7812L13.75 13.6719C13.5833 13.7344 13.3594 13.8203 13.0781 13.9297C12.7969 14.0391 12.2708 14.2943 11.5 14.6953C10.7292 15.0964 10.0156 15.5234 9.35938 15.9766C8.70312 16.4297 8.02083 17.026 7.3125 17.7656C6.60417 18.5052 6.06771 19.276 5.70312 20.0781L5.46875 19.9062C7.38542 21.4688 9.5625 22.25 12 22.25C13.375 22.25 14.7083 21.9792 16 21.4375ZM13.1094 11.9531C12.8906 11.4427 12.6146 10.8646 12.2812 10.2188C9.04167 11.1875 5.53646 11.6719 1.76562 11.6719C1.75521 11.7448 1.75 11.8542 1.75 12C1.75 13.2917 1.97917 14.5234 2.4375 15.6953C2.89583 16.8672 3.54167 17.9167 4.375 18.8438C4.89583 17.9167 5.53906 17.0495 6.30469 16.2422C7.07031 15.4349 7.8125 14.7865 8.53125 14.2969C9.25 13.8073 9.92969 13.3854 10.5703 13.0312C11.2109 12.6771 11.7292 12.4271 12.125 12.2812L12.7031 12.0781C12.7448 12.0677 12.8125 12.0495 12.9062 12.0234C13 11.9974 13.0677 11.974 13.1094 11.9531ZM11.4375 8.64062C10.1875 6.42188 8.91667 4.45312 7.625 2.73438C6.1875 3.41146 4.96875 4.38021 3.96875 5.64062C2.96875 6.90104 2.30208 8.31771 1.96875 9.89062C5.11458 9.89062 8.27083 9.47396 11.4375 8.64062ZM22.125 13.625C19.9375 13 17.8073 12.849 15.7344 13.1719C16.6406 15.6615 17.3073 18.1042 17.7344 20.5C18.8906 19.7188 19.8542 18.7318 20.625 17.5391C21.3958 16.3464 21.8958 15.0417 22.125 13.625ZM9.54688 2.04688C9.53646 2.04688 9.52604 2.05208 9.51562 2.0625C9.52604 2.05208 9.53646 2.04688 9.54688 2.04688ZM18.7656 4.3125C16.8385 2.60417 14.5833 1.75 12 1.75C11.2083 1.75 10.401 1.84896 9.57812 2.04688C10.9427 3.81771 12.224 5.80729 13.4219 8.01562C14.1406 7.74479 14.8177 7.42969 15.4531 7.07031C16.0885 6.71094 16.5911 6.39062 16.9609 6.10938C17.3307 5.82812 17.6719 5.53125 17.9844 5.21875C18.2969 4.90625 18.4922 4.69531 18.5703 4.58594L18.7656 4.3125ZM22.25 11.8906C22.2188 9.47396 21.4427 7.33854 19.9219 5.48438L19.9062 5.5C19.8125 5.625 19.7135 5.7526 19.6094 5.88281C19.5052 6.01302 19.2786 6.24479 18.9297 6.57812C18.5807 6.91146 18.2109 7.22656 17.8203 7.52344C17.4297 7.82031 16.9089 8.15885 16.2578 8.53906C15.6068 8.91927 14.9219 9.25521 14.2031 9.54688C14.4635 10.099 14.6927 10.5938 14.8906 11.0312C14.9115 11.0833 14.9453 11.1719 14.9922 11.2969C15.0391 11.4219 15.0781 11.5104 15.1094 11.5625C15.4844 11.5104 15.8724 11.474 16.2734 11.4531C16.6745 11.4323 17.0573 11.4219 17.4219 11.4219C17.7865 11.4219 18.1458 11.4297 18.5 11.4453C18.8542 11.4609 19.1875 11.4818 19.5 11.5078C19.8125 11.5339 20.1068 11.5625 20.3828 11.5938C20.6589 11.625 20.9089 11.6589 21.1328 11.6953C21.3568 11.7318 21.5469 11.763 21.7031 11.7891C21.8594 11.8151 21.9896 11.8385 22.0938 11.8594L22.25 11.8906ZM24 12C24 14.1771 23.4635 16.1849 22.3906 18.0234C21.3177 19.862 19.862 21.3177 18.0234 22.3906C16.1849 23.4635 14.1771 24 12 24C9.82292 24 7.8151 23.4635 5.97656 22.3906C4.13802 21.3177 2.68229 19.862 1.60938 18.0234C0.536458 16.1849 0 14.1771 0 12C0 9.82292 0.536458 7.8151 1.60938 5.97656C2.68229 4.13802 4.13802 2.68229 5.97656 1.60938C7.8151 0.536458 9.82292 0 12 0C14.1771 0 16.1849 0.536458 18.0234 1.60938C19.862 2.68229 21.3177 4.13802 22.3906 5.97656C23.4635 7.8151 24 9.82292 24 12Z" fill="white"/>
</svg>
