<svg width="60" height="38" viewBox="0 0 60 38" fill="none" xmlns="http://www.w3.org/2000/svg">
<path d="M57.9533 0.71875H2.04666C0.918274 0.71875 0 1.63702 0 2.76541V35.1623C0 36.2906 0.918274 37.2085 2.04666 37.2085H57.9533C59.0817 37.2085 60 36.2906 60 35.1623V2.76541C60 1.63702 59.0817 0.71875 57.9533 0.71875V0.71875ZM3.51929 5.76102L20.3366 16.9387L3.51929 31.578V5.76102ZM30 19.1355L7.58606 4.23804H52.4139L30 19.1355ZM23.3762 18.9583L28.867 22.6081C29.2113 22.837 29.6054 22.9514 30 22.9514C30.3941 22.9514 30.7887 22.8365 31.133 22.6081L36.6238 18.9583L53.546 33.6892H6.45401L23.3762 18.9583ZM39.6634 16.9382L56.4807 5.76056V31.578L39.6634 16.9382Z" fill="#FB760D"/>
</svg>
