<svg width="60" height="60" viewBox="0 0 60 60" fill="none" xmlns="http://www.w3.org/2000/svg">
<path d="M43.7585 0H16.2414C7.28575 0 0 7.28577 0 16.2415V43.759C0 52.7142 7.28575 60 16.2414 60H43.7589C52.7141 60 59.9999 52.7142 59.9999 43.759V16.2415C59.9999 7.28577 52.7141 0 43.7585 0V0ZM56.4824 43.759C56.4824 50.7747 50.7746 56.4825 43.7585 56.4825H16.2414C9.22529 56.4825 3.51745 50.7747 3.51745 43.759V16.2415C3.51745 9.22531 9.22529 3.51746 16.2414 3.51746H43.7589C50.7746 3.51746 56.4824 9.22531 56.4824 16.2415V43.759Z" fill="#FB760D"/>
<path d="M29.9995 13.5942C20.9532 13.5942 13.5938 20.9537 13.5938 30.0001C13.5938 39.0465 20.9532 46.406 29.9995 46.406C39.0458 46.406 46.4053 39.0465 46.4053 30.0001C46.4053 20.9537 39.0458 13.5942 29.9995 13.5942ZM29.9995 42.8885C22.8932 42.8885 17.1112 37.1069 17.1112 30.0001C17.1112 22.8938 22.8932 17.1117 29.9995 17.1117C37.1063 17.1117 42.8878 22.8938 42.8878 30.0001C42.8878 37.1069 37.1063 42.8885 29.9995 42.8885Z" fill="#FB760D"/>
<path d="M46.7969 7.76758C44.1236 7.76758 41.9492 9.9424 41.9492 12.6153C41.9492 15.2886 44.1236 17.4634 46.7969 17.4634C49.4703 17.4634 51.6451 15.2886 51.6451 12.6153C51.6451 9.94194 49.4703 7.76758 46.7969 7.76758ZM46.7969 13.9455C46.0636 13.9455 45.4667 13.3486 45.4667 12.6153C45.4667 11.8815 46.0636 11.285 46.7969 11.285C47.5307 11.285 48.1276 11.8815 48.1276 12.6153C48.1276 13.3486 47.5307 13.9455 46.7969 13.9455Z" fill="#FB760D"/>
</svg>
