<svg width="16" height="16" viewBox="0 0 16 16" fill="none" xmlns="http://www.w3.org/2000/svg">
<g clip-path="url(#clip0)">
<path d="M7.15265 14.3976C3.36885 8.91218 2.6665 8.34922 2.6665 6.33325C2.6665 3.57182 4.90507 1.33325 7.6665 1.33325C10.4279 1.33325 12.6665 3.57182 12.6665 6.33325C12.6665 8.34922 11.9642 8.91218 8.18036 14.3976C7.93205 14.7563 7.40093 14.7562 7.15265 14.3976ZM7.6665 8.41658C8.8171 8.41658 9.74984 7.48385 9.74984 6.33325C9.74984 5.18265 8.8171 4.24992 7.6665 4.24992C6.5159 4.24992 5.58317 5.18265 5.58317 6.33325C5.58317 7.48385 6.5159 8.41658 7.6665 8.41658Z" fill="black"/>
</g>
<defs>
<clipPath id="clip0">
<rect x="2.6665" y="1.33325" width="10" height="13.3333" rx="5" fill="white"/>
</clipPath>
</defs>
</svg>
