<svg width="20" height="20" viewBox="0 0 20 20" fill="none" xmlns="http://www.w3.org/2000/svg">
<g clip-path="url(#clip0)">
<path d="M6.66295 3.65473V18.1632C6.66295 18.3694 6.61644 18.5446 6.52344 18.6889C6.43043 18.8332 6.29464 18.9053 6.11607 18.9053C5.98958 18.9053 5.86682 18.8724 5.74777 18.8064L0.558036 15.9245C0.401786 15.842 0.269717 15.7039 0.16183 15.5101C0.0539435 15.3164 0 15.1246 0 14.935V0.834667C0 0.669751 0.0372024 0.529572 0.111607 0.414131C0.186012 0.29869 0.293899 0.240969 0.435268 0.240969C0.539435 0.240969 0.703125 0.302813 0.926339 0.4265L6.62946 3.59289C6.65179 3.61762 6.66295 3.63824 6.66295 3.65473ZM7.37723 4.90397L13.3371 15.6153L7.37723 12.3252V4.90397ZM20 5.12661V18.1632C20 18.3694 19.9479 18.5363 19.8438 18.6642C19.7396 18.792 19.5982 18.8559 19.4196 18.8559C19.2411 18.8559 19.0662 18.8023 18.8951 18.6951L13.9732 15.974L20 5.12661ZM19.9665 3.64236C19.9665 3.6671 19.0123 5.39666 17.1038 8.83103C15.1953 12.2654 14.0774 14.2753 13.75 14.8608L9.39732 7.01902L13.0134 0.500712C13.1399 0.26983 13.3333 0.154388 13.5938 0.154388C13.6979 0.154388 13.7946 0.179126 13.8839 0.228601L19.9219 3.56815C19.9516 3.58464 19.9665 3.60938 19.9665 3.64236Z" fill="white"/>
</g>
<defs>
<clipPath id="clip0">
<rect width="20" height="18.9983" fill="white" transform="translate(0 0.0307007)"/>
</clipPath>
</defs>
</svg>
