<svg width="16" height="16" viewBox="0 0 16 16" fill="none" xmlns="http://www.w3.org/2000/svg">
<g clip-path="url(#clip0)">
<path d="M4.47808 6.66675H5.18079C5.41016 6.66675 5.5685 6.44112 5.49037 6.2255C5.38766 5.94258 5.33308 5.64258 5.33308 5.33341C5.33308 5.02425 5.38766 4.72425 5.49037 4.44133C5.5687 4.22571 5.41016 4.00008 5.18079 4.00008H4.47808C4.33204 4.00008 4.19766 4.09362 4.15704 4.23404C4.05516 4.58779 4.00016 4.95591 4.00016 5.33341C4.00016 5.71091 4.05516 6.07904 4.15725 6.43258C4.19766 6.573 4.33204 6.66675 4.47808 6.66675ZM3.20683 3.153C3.32433 2.93175 3.1662 2.66675 2.916 2.66675H2.17995C2.04933 2.66675 1.92704 2.74154 1.87287 2.86071C1.52933 3.6155 1.3335 4.45112 1.3335 5.33341C1.3335 5.84904 1.3985 6.75696 1.88954 7.80966C1.94412 7.92696 2.06495 8.00008 2.19391 8.00008H2.91975C3.17016 8.00008 3.32829 7.73466 3.21037 7.51321C2.17329 5.56904 2.86225 3.80175 3.20683 3.153ZM14.1264 2.86029C14.0722 2.74133 13.9502 2.66675 13.8195 2.66675H13.0816C12.832 2.66675 12.672 2.9305 12.7895 3.15112C13.1702 3.8655 13.7983 5.63904 12.7954 7.51008C12.6762 7.73258 12.8329 8.00008 13.0852 8.00008H13.8191C13.9497 8.00008 14.0718 7.9255 14.126 7.80654C14.4704 7.05175 14.6668 6.21591 14.6668 5.33341C14.6668 4.45091 14.4706 3.61508 14.1264 2.86029ZM11.5222 4.00008H10.8195C10.5902 4.00008 10.4318 4.22571 10.51 4.44133C10.6127 4.72425 10.6672 5.02425 10.6672 5.33341C10.6672 5.64258 10.6127 5.94258 10.51 6.2255C10.4316 6.44112 10.5902 6.66675 10.8195 6.66675H11.5222C11.6685 6.66675 11.8027 6.57321 11.8433 6.43258C11.9454 6.07904 12.0002 5.71091 12.0002 5.33341C12.0002 4.95591 11.9452 4.58779 11.8431 4.23425C11.8027 4.09362 11.6683 4.00008 11.5222 4.00008ZM9.09933 6.08591C9.2462 5.87154 9.33266 5.61279 9.33266 5.33341C9.33266 4.59696 8.7362 4.00008 8.00016 4.00008C7.26433 4.00008 6.66766 4.59696 6.66766 5.33341C6.66766 5.61279 6.75412 5.87154 6.901 6.08591L4.18225 12.6153C4.11141 12.7851 4.19183 12.9803 4.36162 13.0511L4.97641 13.3076C5.1462 13.3784 5.34141 13.298 5.41204 13.1282L6.43683 10.6667H9.56329L10.5883 13.1282C10.6591 13.2982 10.8541 13.3784 11.0239 13.3076L11.6387 13.0511C11.8085 12.9803 11.8887 12.7851 11.8181 12.6153L9.09933 6.08591ZM6.99225 9.33342L8.00016 6.91279L9.00808 9.33342H6.99225Z" fill="black"/>
</g>
<defs>
<clipPath id="clip0">
<rect x="1.3335" y="2.66675" width="13.3333" height="10.6667" rx="5.33333" fill="white"/>
</clipPath>
</defs>
</svg>
