<svg width="60" height="60" viewBox="0 0 60 60" fill="none" xmlns="http://www.w3.org/2000/svg">
<g clip-path="url(#clip0)">
<path d="M51.4778 8.52219C45.9819 3.02628 38.6765 0 30.9036 0C30.9032 0 30.9013 0 30.9009 0C27.0566 0.000457764 23.3102 0.744782 19.7667 2.21283C16.2227 3.68088 13.0476 5.80353 10.329 8.52219C4.83353 14.0176 1.80726 21.3245 1.80726 29.0964C1.80726 33.7312 2.92557 38.3372 5.04456 42.4411L0.153815 56.413C-0.190881 57.3985 0.0531075 58.4697 0.791938 59.2081C1.30875 59.7253 1.98899 60 2.68845 60C2.98829 60 3.29133 59.9496 3.58704 59.8462L17.5589 54.9559C21.6628 57.0749 26.2688 58.1932 30.9036 58.1932C38.6755 58.1932 45.9819 55.1665 51.4778 49.671C56.9733 44.1756 60 36.8687 60 29.0968C60 21.3245 56.9737 14.0176 51.4778 8.52219ZM48.9894 47.1826C44.1586 52.0139 37.7353 54.6739 30.9036 54.6739C26.7243 54.6739 22.5723 53.6403 18.8965 51.6838C18.23 51.3295 17.4422 51.2686 16.7349 51.5163L4.04114 55.9589L8.4842 43.2651C8.73185 42.5569 8.67051 41.7691 8.3162 41.1031C6.36018 37.4281 5.32609 33.2762 5.32609 29.0964C5.32609 22.2647 7.98661 15.8414 12.8174 11.0106C17.6477 6.18027 24.0701 3.51974 30.9013 3.51883H30.9036C37.7358 3.51883 44.1586 6.17935 48.9894 11.0106C53.8207 15.8414 56.4812 22.2643 56.4812 29.0964C56.4812 35.9285 53.8207 42.3518 48.9894 47.1826Z" fill="#FB760D"/>
<path d="M41.7167 31.6953C40.3782 30.3568 38.2002 30.3568 36.8617 31.6953L35.3977 33.1593C31.7626 31.1785 28.8211 28.2369 26.8399 24.6018L28.3038 23.1379C29.6427 21.7994 29.6427 19.6214 28.3038 18.2829L24.3588 14.3379C23.0203 12.9994 20.8422 12.9994 19.5037 14.3379L16.3479 17.4937C14.5402 19.3014 14.45 22.4091 16.0939 26.2448C17.5212 29.575 20.1332 33.2353 23.4487 36.5508C26.7643 39.8664 30.4246 42.4784 33.7548 43.9057C35.5772 44.6867 37.2348 45.0762 38.6671 45.0762C40.2496 45.0762 41.557 44.6006 42.5059 43.6517L45.6617 40.4954V40.4958C46.3104 39.8472 46.6674 38.9852 46.6674 38.0683C46.6674 37.151 46.3104 36.289 45.6617 35.6408L41.7167 31.6953ZM40.0175 41.1633C39.5016 41.6792 37.915 41.86 35.1414 40.6716C32.2126 39.4164 28.9437 37.069 25.9371 34.0624C22.9306 31.0558 20.5836 27.7874 19.3284 24.8586C18.1396 22.0851 18.3204 20.498 18.8363 19.9821L21.9317 16.8867L25.755 20.7104L23.9225 22.5433C23.094 23.3718 22.8939 24.6284 23.4254 25.6703C25.8346 30.3944 29.6052 34.165 34.3293 36.5742C35.3717 37.1057 36.6282 36.9061 37.4568 36.0771L39.2892 34.2446L43.1129 38.0683L40.0175 41.1633Z" fill="#FB760D"/>
</g>
<defs>
<clipPath id="clip0">
<rect width="60" height="60" fill="white"/>
</clipPath>
</defs>
</svg>
